<svg xmlns="http://www.w3.org/2000/svg" width="250" height="170" viewBox="0 0 250 170">
<defs>
<linearGradient id="grad" x1="0%" y1="0%" x2="100%" y2="100%">
  <stop offset="0%" stop-color="#2563EB"/>
  <stop offset="100%" stop-color="#56CCF2"/>
</linearGradient>
</defs>
<path d="M 176.50 0.00 L 177.00 0.50 L 178.00 0.50 L 179.00 0.50 L 179.50 1.00 L 180.00 1.50 L 181.00 1.50 L 181.50 2.00 L 182.00 2.50 L 182.50 3.00 L 182.50 4.00 L 183.00 4.50 L 183.50 5.00 L 183.50 6.00 L 183.50 7.00 L 183.50 8.00 L 183.50 9.00 L 183.50 10.00 L 183.50 11.00 L 183.50 12.00 L 184.00 12.50 L 184.50 13.00 L 184.50 14.00 L 184.50 15.00 L 184.50 16.00 L 184.50 17.00 L 184.50 18.00 L 184.50 19.00 L 184.50 20.00 L 184.50 21.00 L 184.50 22.00 L 184.50 23.00 L 184.50 24.00 L 184.50 25.00 L 184.50 26.00 L 184.50 27.00 L 184.50 28.00 L 184.50 29.00 L 184.00 29.50 L 183.50 30.00 L 183.50 31.00 L 183.00 31.50 L 182.00 31.50 L 181.00 31.50 L 180.00 31.50 L 179.00 31.50 L 178.00 31.50 L 177.00 31.50 L 176.00 31.50 L 175.00 31.50 L 174.00 31.50 L 173.00 31.50 L 172.00 31.50 L 171.00 31.50 L 170.00 31.50 L 169.00 31.50 L 168.00 31.50 L 167.50 31.00 L 167.50 30.00 L 167.50 29.00 L 167.50 28.00 L 167.50 27.00 L 167.50 26.00 L 167.50 25.00 L 167.50 24.00 L 167.50 23.00 L 167.50 22.00 L 167.50 21.00 L 167.50 20.00 L 167.50 19.00 L 167.50 18.00 L 167.50 17.00 L 167.00 16.50 L 166.00 16.50 L 165.00 16.50 L 164.00 16.50 L 163.00 16.50 L 162.00 16.50 L 161.00 16.50 L 160.00 16.50 L 159.00 16.50 L 158.00 16.50 L 157.00 16.50 L 156.00 16.50 L 155.00 16.50 L 154.00 16.50 L 153.00 16.50 L 152.00 16.50 L 151.00 16.50 L 150.00 16.50 L 149.00 16.50 L 148.00 16.50 L 147.00 16.50 L 146.00 16.50 L 145.00 16.50 L 144.00 16.50 L 143.00 16.50 L 142.00 16.50 L 141.00 16.50 L 140.00 16.50 L 139.00 16.50 L 138.00 16.50 L 137.00 16.50 L 136.00 16.50 L 135.00 16.50 L 134.00 16.50 L 133.00 16.50 L 132.00 16.50 L 131.00 16.50 L 130.00 16.50 L 129.00 16.50 L 128.00 16.50 L 127.00 16.50 L 126.00 16.50 L 125.00 16.50 L 124.00 16.50 L 123.00 16.50 L 122.00 16.50 L 121.00 16.50 L 120.00 16.50 L 119.00 16.50 L 118.00 16.50 L 117.00 16.50 L 116.00 16.50 L 115.00 16.50 L 114.00 16.50 L 113.00 16.50 L 112.00 16.50 L 111.00 16.50 L 110.00 16.50 L 109.00 16.50 L 108.00 16.50 L 107.00 16.50 L 106.00 16.50 L 105.00 16.50 L 104.00 16.50 L 103.00 16.50 L 102.00 16.50 L 101.00 16.50 L 100.00 16.50 L 99.00 16.50 L 98.00 16.50 L 97.00 16.50 L 96.00 16.50 L 95.00 16.50 L 94.00 16.50 L 93.00 16.50 L 92.00 16.50 L 91.00 16.50 L 90.00 16.50 L 89.00 16.50 L 88.00 16.50 L 87.00 16.50 L 86.00 16.50 L 85.00 16.50 L 84.00 16.50 L 83.00 16.50 L 82.00 16.50 L 81.00 16.50 L 80.00 16.50 L 79.00 16.50 L 78.00 16.50 L 77.00 16.50 L 76.00 16.50 L 75.00 16.50 L 74.00 16.50 L 73.00 16.50 L 72.00 16.50 L 71.00 16.50 L 70.00 16.50 L 69.00 16.50 L 68.00 16.50 L 67.00 16.50 L 66.00 16.50 L 65.00 16.50 L 64.00 16.50 L 63.00 16.50 L 62.00 16.50 L 61.00 16.50 L 60.00 16.50 L 59.00 16.50 L 58.00 16.50 L 57.00 16.50 L 56.00 16.50 L 55.50 17.00 L 55.50 18.00 L 55.50 19.00 L 55.50 20.00 L 55.50 21.00 L 55.50 22.00 L 55.50 23.00 L 55.50 24.00 L 55.50 25.00 L 55.50 26.00 L 55.50 27.00 L 55.50 28.00 L 55.50 29.00 L 55.50 30.00 L 55.50 31.00 L 55.50 32.00 L 55.50 33.00 L 55.50 34.00 L 55.50 35.00 L 55.50 36.00 L 55.50 37.00 L 55.50 38.00 L 55.50 39.00 L 55.50 40.00 L 55.50 41.00 L 55.50 42.00 L 55.50 43.00 L 55.50 44.00 L 55.50 45.00 L 55.50 46.00 L 55.50 47.00 L 55.50 48.00 L 55.50 49.00 L 55.50 50.00 L 55.50 51.00 L 55.50 52.00 L 55.50 53.00 L 55.50 54.00 L 55.50 55.00 L 55.50 56.00 L 55.50 57.00 L 55.50 58.00 L 55.50 59.00 L 55.50 60.00 L 55.50 61.00 L 55.50 62.00 L 55.50 63.00 L 55.50 64.00 L 55.50 65.00 L 55.50 66.00 L 55.50 67.00 L 55.50 68.00 L 55.50 69.00 L 55.50 70.00 L 55.50 71.00 L 55.50 72.00 L 55.50 73.00 L 55.50 74.00 L 55.50 75.00 L 55.50 76.00 L 55.50 77.00 L 55.50 78.00 L 55.50 79.00 L 55.50 80.00 L 55.50 81.00 L 55.50 82.00 L 55.50 83.00 L 55.50 84.00 L 56.00 84.50 L 56.50 85.00 L 56.50 86.00 L 56.50 87.00 L 56.50 88.00 L 57.00 88.50 L 57.50 89.00 L 57.50 90.00 L 58.00 90.50 L 58.50 91.00 L 59.00 91.50 L 59.50 92.00 L 60.00 92.50 L 60.50 93.00 L 61.00 93.50 L 61.50 94.00 L 62.00 94.50 L 63.00 94.50 L 63.50 95.00 L 64.00 95.50 L 65.00 95.50 L 66.00 95.50 L 66.50 96.00 L 67.00 96.50 L 68.00 96.50 L 69.00 96.50 L 70.00 96.50 L 71.00 96.50 L 72.00 96.50 L 72.50 96.00 L 73.00 95.50 L 74.00 95.50 L 74.50 95.00 L 75.00 94.50 L 75.50 94.00 L 75.50 93.00 L 76.00 92.50 L 76.50 92.00 L 76.50 91.00 L 76.50 90.00 L 76.50 89.00 L 77.00 88.50 L 77.50 88.00 L 77.50 87.00 L 78.00 86.50 L 78.50 86.00 L 78.50 85.00 L 78.50 84.00 L 78.50 83.00 L 79.00 82.50 L 79.50 82.00 L 79.50 81.00 L 79.50 80.00 L 80.00 79.50 L 80.50 79.00 L 80.50 78.00 L 80.50 77.00 L 80.50 76.00 L 81.00 75.50 L 81.50 75.00 L 81.50 74.00 L 81.50 73.00 L 81.50 72.00 L 82.00 71.50 L 82.50 71.00 L 82.50 70.00 L 82.50 69.00 L 83.00 68.50 L 83.50 68.00 L 83.50 67.00 L 83.50 66.00 L 83.50 65.00 L 84.00 64.50 L 84.50 64.00 L 84.50 63.00 L 85.00 62.50 L 85.50 62.00 L 85.50 61.00 L 85.50 60.00 L 85.50 59.00 L 86.00 58.50 L 86.50 58.00 L 86.50 57.00 L 86.50 56.00 L 87.00 55.50 L 87.50 55.00 L 87.50 54.00 L 87.50 53.00 L 87.50 52.00 L 88.00 51.50 L 88.50 51.00 L 88.50 50.00 L 88.50 49.00 L 88.50 48.00 L 89.00 47.50 L 89.50 47.00 L 89.50 46.00 L 89.50 45.00 L 90.00 44.50 L 90.50 44.00 L 90.50 43.00 L 91.00 42.50 L 91.50 42.00 L 91.50 41.00 L 92.00 40.50 L 92.50 40.00 L 93.00 39.50 L 94.00 39.50 L 95.00 39.50 L 96.00 39.50 L 97.00 39.50 L 98.00 39.50 L 99.00 39.50 L 100.00 39.50 L 101.00 39.50 L 102.00 39.50 L 103.00 39.50 L 104.00 39.50 L 105.00 39.50 L 106.00 39.50 L 107.00 39.50 L 108.00 39.50 L 109.00 39.50 L 110.00 39.50 L 111.00 39.50 L 112.00 39.50 L 113.00 39.50 L 114.00 39.50 L 115.00 39.50 L 115.50 40.00 L 115.50 41.00 L 116.00 41.50 L 116.50 42.00 L 117.00 42.50 L 117.50 43.00 L 117.50 44.00 L 117.50 45.00 L 118.00 45.50 L 118.50 46.00 L 118.50 47.00 L 118.50 48.00 L 118.50 49.00 L 119.00 49.50 L 119.50 50.00 L 119.50 51.00 L 119.50 52.00 L 120.00 52.50 L 120.50 53.00 L 120.50 54.00 L 120.50 55.00 L 120.50 56.00 L 121.00 56.50 L 121.50 57.00 L 121.50 58.00 L 122.00 58.50 L 122.50 59.00 L 122.50 60.00 L 122.50 61.00 L 122.50 62.00 L 122.50 63.00 L 123.00 63.50 L 123.50 64.00 L 123.50 65.00 L 123.50 66.00 L 124.00 66.50 L 124.50 67.00 L 124.50 68.00 L 124.50 69.00 L 125.00 69.50 L 125.50 70.00 L 125.50 71.00 L 125.50 72.00 L 125.50 73.00 L 126.00 73.50 L 126.50 74.00 L 126.50 75.00 L 126.50 76.00 L 127.00 76.50 L 127.50 77.00 L 127.50 78.00 L 127.50 79.00 L 127.50 80.00 L 128.00 80.50 L 128.50 81.00 L 128.50 82.00 L 129.00 82.50 L 129.50 83.00 L 129.50 84.00 L 129.50 85.00 L 129.50 86.00 L 130.00 86.50 L 130.50 87.00 L 130.50 88.00 L 130.50 89.00 L 131.00 89.50 L 131.50 89.00 L 131.50 88.00 L 131.50 87.00 L 132.00 86.50 L 132.50 86.00 L 132.50 85.00 L 132.50 84.00 L 133.00 83.50 L 133.50 83.00 L 133.50 82.00 L 133.50 81.00 L 133.50 80.00 L 134.00 79.50 L 134.50 79.00 L 134.50 78.00 L 134.50 77.00 L 135.00 76.50 L 135.50 76.00 L 135.50 75.00 L 135.50 74.00 L 135.50 73.00 L 136.00 72.50 L 136.50 72.00 L 136.50 71.00 L 136.50 70.00 L 137.00 69.50 L 137.50 69.00 L 137.50 68.00 L 137.50 67.00 L 138.00 66.50 L 138.50 66.00 L 138.50 65.00 L 138.50 64.00 L 138.50 63.00 L 139.00 62.50 L 139.50 62.00 L 139.50 61.00 L 139.50 60.00 L 140.00 59.50 L 140.50 59.00 L 140.50 58.00 L 140.50 57.00 L 140.50 56.00 L 141.00 55.50 L 141.50 55.00 L 141.50 54.00 L 141.50 53.00 L 142.00 52.50 L 142.50 52.00 L 142.50 51.00 L 142.50 50.00 L 142.50 49.00 L 143.00 48.50 L 143.50 48.00 L 143.50 47.00 L 143.50 46.00 L 143.50 45.00 L 144.00 44.50 L 144.50 44.00 L 144.50 43.00 L 145.00 42.50 L 145.50 42.00 L 146.00 41.50 L 146.50 41.00 L 147.00 40.50 L 147.50 40.00 L 148.00 39.50 L 149.00 39.50 L 150.00 39.50 L 151.00 39.50 L 152.00 39.50 L 153.00 39.50 L 154.00 39.50 L 155.00 39.50 L 156.00 39.50 L 157.00 39.50 L 158.00 39.50 L 159.00 39.50 L 160.00 39.50 L 161.00 39.50 L 162.00 39.50 L 163.00 39.50 L 164.00 39.50 L 165.00 39.50 L 166.00 39.50 L 167.00 39.50 L 168.00 39.50 L 169.00 39.50 L 170.00 39.50 L 171.00 39.50 L 172.00 39.50 L 173.00 39.50 L 174.00 39.50 L 175.00 39.50 L 176.00 39.50 L 177.00 39.50 L 178.00 39.50 L 179.00 39.50 L 180.00 39.50 L 181.00 39.50 L 182.00 39.50 L 183.00 39.50 L 184.00 39.50 L 185.00 39.50 L 186.00 39.50 L 187.00 39.50 L 188.00 39.50 L 189.00 39.50 L 190.00 39.50 L 191.00 39.50 L 192.00 39.50 L 193.00 39.50 L 194.00 39.50 L 195.00 39.50 L 196.00 39.50 L 197.00 39.50 L 198.00 39.50 L 199.00 39.50 L 199.50 40.00 L 199.50 41.00 L 199.50 42.00 L 199.00 42.50 L 198.50 43.00 L 198.50 44.00 L 198.50 45.00 L 198.00 45.50 L 197.50 46.00 L 197.50 47.00 L 197.50 48.00 L 197.00 48.50 L 196.50 49.00 L 196.50 50.00 L 196.50 51.00 L 196.50 52.00 L 196.00 52.50 L 195.50 53.00 L 195.00 53.50 L 194.50 54.00 L 194.50 55.00 L 194.00 55.50 L 193.00 55.50 L 192.00 55.50 L 191.00 55.50 L 190.00 55.50 L 189.00 55.50 L 188.00 55.50 L 187.00 55.50 L 186.00 55.50 L 185.00 55.50 L 184.00 55.50 L 183.00 55.50 L 182.00 55.50 L 181.00 55.50 L 180.00 55.50 L 179.00 55.50 L 178.00 55.50 L 177.00 55.50 L 176.00 55.50 L 175.00 55.50 L 174.00 55.50 L 173.00 55.50 L 172.00 55.50 L 171.00 55.50 L 170.00 55.50 L 169.00 55.50 L 168.00 55.50 L 167.00 55.50 L 166.00 55.50 L 165.00 55.50 L 164.00 55.50 L 163.00 55.50 L 162.00 55.50 L 161.00 55.50 L 160.00 55.50 L 159.00 55.50 L 158.50 56.00 L 158.00 56.50 L 157.50 57.00 L 157.50 58.00 L 157.00 58.50 L 156.50 59.00 L 156.50 60.00 L 156.50 61.00 L 156.50 62.00 L 156.00 62.50 L 155.50 63.00 L 155.50 64.00 L 155.50 65.00 L 155.00 65.50 L 154.50 66.00 L 154.50 67.00 L 154.50 68.00 L 154.00 68.50 L 153.50 69.00 L 153.50 70.00 L 153.50 71.00 L 153.50 72.00 L 153.00 72.50 L 152.50 73.00 L 152.50 74.00 L 152.50 75.00 L 152.00 75.50 L 151.50 76.00 L 151.50 77.00 L 151.50 78.00 L 151.50 79.00 L 151.00 79.50 L 150.50 80.00 L 150.50 81.00 L 150.00 81.50 L 149.50 82.00 L 149.50 83.00 L 149.50 84.00 L 149.50 85.00 L 149.50 86.00 L 149.00 86.50 L 148.50 87.00 L 148.50 88.00 L 148.50 89.00 L 148.00 89.50 L 147.50 90.00 L 147.50 91.00 L 147.50 92.00 L 147.00 92.50 L 146.50 93.00 L 146.50 94.00 L 146.50 95.00 L 146.50 96.00 L 146.00 96.50 L 145.50 97.00 L 145.50 98.00 L 145.50 99.00 L 145.00 99.50 L 144.50 100.00 L 144.50 101.00 L 144.50 102.00 L 144.50 103.00 L 144.00 103.50 L 143.50 104.00 L 143.50 105.00 L 143.50 106.00 L 143.00 106.50 L 142.50 107.00 L 142.50 108.00 L 142.00 108.50 L 141.50 109.00 L 141.50 110.00 L 141.00 110.50 L 140.00 110.50 L 139.50 111.00 L 139.00 111.50 L 138.00 111.50 L 137.00 111.50 L 136.00 111.50 L 135.50 112.00 L 135.00 112.50 L 134.00 112.50 L 133.00 112.50 L 132.00 112.50 L 131.00 112.50 L 130.00 112.50 L 129.00 112.50 L 128.00 112.50 L 127.00 112.50 L 126.00 112.50 L 125.00 112.50 L 124.50 112.00 L 124.00 111.50 L 123.00 111.50 L 122.50 111.00 L 122.00 110.50 L 121.50 110.00 L 121.00 109.50 L 120.50 109.00 L 120.00 108.50 L 119.50 108.00 L 119.50 107.00 L 119.00 106.50 L 118.50 106.00 L 118.50 105.00 L 118.50 104.00 L 118.50 103.00 L 118.00 102.50 L 117.50 102.00 L 117.50 101.00 L 117.50 100.00 L 117.00 99.50 L 116.50 99.00 L 116.50 98.00 L 116.50 97.00 L 116.50 96.00 L 116.00 95.50 L 115.50 95.00 L 115.50 94.00 L 115.50 93.00 L 115.00 92.50 L 114.50 92.00 L 114.50 91.00 L 114.50 90.00 L 114.00 89.50 L 113.50 89.00 L 113.50 88.00 L 113.50 87.00 L 113.50 86.00 L 113.00 85.50 L 112.50 85.00 L 112.50 84.00 L 112.50 83.00 L 112.00 82.50 L 111.50 82.00 L 111.50 81.00 L 111.50 80.00 L 111.50 79.00 L 111.00 78.50 L 110.50 78.00 L 110.50 77.00 L 110.00 76.50 L 109.50 76.00 L 109.50 75.00 L 109.50 74.00 L 109.50 73.00 L 109.00 72.50 L 108.50 72.00 L 108.50 71.00 L 108.50 70.00 L 108.00 69.50 L 107.50 69.00 L 107.50 68.00 L 107.50 67.00 L 107.00 66.50 L 106.50 66.00 L 106.50 65.00 L 106.50 64.00 L 106.00 63.50 L 105.50 63.00 L 105.50 62.00 L 105.50 61.00 L 105.50 60.00 L 105.00 59.50 L 104.50 59.00 L 104.50 58.00 L 104.50 57.00 L 104.00 56.50 L 103.50 57.00 L 103.50 58.00 L 103.50 59.00 L 103.00 59.50 L 102.50 60.00 L 102.50 61.00 L 102.50 62.00 L 102.00 62.50 L 101.50 63.00 L 101.50 64.00 L 101.50 65.00 L 101.50 66.00 L 101.00 66.50 L 100.50 67.00 L 100.50 68.00 L 100.00 68.50 L 99.50 69.00 L 99.50 70.00 L 99.50 71.00 L 99.50 72.00 L 99.00 72.50 L 98.50 73.00 L 98.50 74.00 L 98.50 75.00 L 98.50 76.00 L 98.00 76.50 L 97.50 77.00 L 97.50 78.00 L 97.50 79.00 L 97.00 79.50 L 96.50 80.00 L 96.50 81.00 L 96.50 82.00 L 96.50 83.00 L 96.00 83.50 L 95.50 84.00 L 95.50 85.00 L 95.00 85.50 L 94.50 86.00 L 94.50 87.00 L 94.50 88.00 L 94.50 89.00 L 94.50 90.00 L 94.00 90.50 L 93.50 91.00 L 93.50 92.00 L 93.50 93.00 L 93.00 93.50 L 92.50 94.00 L 92.50 95.00 L 92.50 96.00 L 92.00 96.50 L 91.50 97.00 L 91.50 98.00 L 91.50 99.00 L 91.50 100.00 L 91.00 100.50 L 90.50 101.00 L 90.50 102.00 L 90.50 103.00 L 90.00 103.50 L 89.50 104.00 L 89.50 105.00 L 89.50 106.00 L 89.50 107.00 L 89.00 107.50 L 88.50 108.00 L 88.50 109.00 L 88.00 109.50 L 87.50 110.00 L 87.00 110.50 L 86.00 110.50 L 85.50 111.00 L 85.00 111.50 L 84.00 111.50 L 83.50 112.00 L 83.00 112.50 L 82.00 112.50 L 81.00 112.50 L 80.00 112.50 L 79.00 112.50 L 78.00 112.50 L 77.00 112.50 L 76.00 112.50 L 75.00 112.50 L 74.00 112.50 L 73.00 112.50 L 72.00 112.50 L 71.00 112.50 L 70.00 112.50 L 69.00 112.50 L 68.00 112.50 L 67.00 112.50 L 66.00 112.50 L 65.00 112.50 L 64.00 112.50 L 63.50 112.00 L 63.00 111.50 L 62.00 111.50 L 61.00 111.50 L 60.50 111.00 L 60.00 110.50 L 59.00 110.50 L 58.00 110.50 L 57.50 110.00 L 57.00 109.50 L 56.00 109.50 L 55.50 109.00 L 55.00 108.50 L 54.00 108.50 L 53.50 108.00 L 53.00 107.50 L 52.00 107.50 L 51.50 107.00 L 51.00 106.50 L 50.50 106.00 L 50.00 105.50 L 49.50 105.00 L 49.00 104.50 L 48.50 104.00 L 48.00 103.50 L 47.50 103.00 L 47.00 102.50 L 46.50 102.00 L 46.00 101.50 L 45.50 101.00 L 45.00 100.50 L 44.50 100.00 L 44.50 99.00 L 44.00 98.50 L 43.50 98.00 L 43.50 97.00 L 43.00 96.50 L 42.50 96.00 L 42.50 95.00 L 42.00 94.50 L 41.50 94.00 L 41.50 93.00 L 41.00 92.50 L 40.50 92.00 L 40.50 91.00 L 40.50 90.00 L 40.50 89.00 L 40.50 88.00 L 40.00 87.50 L 39.50 87.00 L 39.50 86.00 L 39.50 85.00 L 39.50 84.00 L 39.50 83.00 L 39.50 82.00 L 39.50 81.00 L 39.50 80.00 L 39.50 79.00 L 39.50 78.00 L 39.50 77.00 L 39.50 76.00 L 39.50 75.00 L 39.50 74.00 L 39.50 73.00 L 39.50 72.00 L 39.50 71.00 L 39.50 70.00 L 39.50 69.00 L 39.50 68.00 L 39.50 67.00 L 39.50 66.00 L 39.50 65.00 L 39.50 64.00 L 39.50 63.00 L 39.50 62.00 L 39.50 61.00 L 39.50 60.00 L 39.50 59.00 L 39.50 58.00 L 39.50 57.00 L 39.50 56.00 L 39.50 55.00 L 39.50 54.00 L 39.50 53.00 L 39.50 52.00 L 39.50 51.00 L 39.50 50.00 L 39.50 49.00 L 39.50 48.00 L 39.50 47.00 L 39.50 46.00 L 39.50 45.00 L 39.50 44.00 L 39.50 43.00 L 39.50 42.00 L 39.50 41.00 L 39.50 40.00 L 39.50 39.00 L 39.50 38.00 L 39.50 37.00 L 39.50 36.00 L 39.50 35.00 L 39.50 34.00 L 39.50 33.00 L 39.50 32.00 L 39.50 31.00 L 39.50 30.00 L 39.50 29.00 L 39.50 28.00 L 39.50 27.00 L 39.50 26.00 L 39.50 25.00 L 39.50 24.00 L 39.50 23.00 L 39.50 22.00 L 39.50 21.00 L 39.50 20.00 L 39.50 19.00 L 39.50 18.00 L 39.50 17.00 L 39.50 16.00 L 39.50 15.00 L 39.50 14.00 L 39.50 13.00 L 39.50 12.00 L 39.50 11.00 L 39.50 10.00 L 39.50 9.00 L 39.50 8.00 L 39.50 7.00 L 39.50 6.00 L 40.00 5.50 L 40.50 5.00 L 40.50 4.00 L 41.00 3.50 L 41.50 3.00 L 42.00 2.50 L 42.50 2.00 L 43.00 1.50 L 43.50 1.00 L 44.00 0.50 L 45.00 0.50 L 45.50 0.00 Z" fill="url(#grad)" stroke="none"/>
<path d="M 159.00 112.50 L 158.00 112.50 L 157.00 112.50 L 156.00 112.50 L 155.00 112.50 L 154.00 112.50 L 153.00 112.50 L 152.00 112.50 L 151.50 112.00 L 151.50 111.00 L 151.50 110.00 L 151.50 109.00 L 152.00 108.50 L 152.50 108.00 L 152.50 107.00 L 152.50 106.00 L 152.50 105.00 L 152.50 104.00 L 152.50 103.00 L 153.00 102.50 L 153.50 102.00 L 153.50 101.00 L 153.50 100.00 L 154.00 99.50 L 154.50 99.00 L 155.00 98.50 L 155.50 98.00 L 156.00 97.50 L 157.00 97.50 L 157.50 97.00 L 158.00 96.50 L 159.00 96.50 L 159.50 96.00 L 160.00 95.50 L 160.50 95.00 L 161.00 94.50 L 162.00 94.50 L 162.50 94.00 L 163.00 93.50 L 163.50 93.00 L 164.00 92.50 L 164.50 92.00 L 164.50 91.00 L 165.00 90.50 L 165.50 90.00 L 166.00 89.50 L 166.50 89.00 L 166.50 88.00 L 166.50 87.00 L 167.00 86.50 L 167.50 86.00 L 167.50 85.00 L 167.50 84.00 L 167.50 83.00 L 167.50 82.00 L 167.50 81.00 L 167.50 80.00 L 167.50 79.00 L 167.50 78.00 L 167.50 77.00 L 167.50 76.00 L 167.50 75.00 L 167.50 74.00 L 167.50 73.00 L 167.50 72.00 L 167.50 71.00 L 167.50 70.00 L 167.50 69.00 L 167.50 68.00 L 167.50 67.00 L 167.50 66.00 L 168.00 65.50 L 169.00 65.50 L 170.00 65.50 L 171.00 65.50 L 172.00 65.50 L 173.00 65.50 L 174.00 65.50 L 175.00 65.50 L 176.00 65.50 L 177.00 65.50 L 178.00 65.50 L 179.00 65.50 L 180.00 65.50 L 181.00 65.50 L 182.00 65.50 L 183.00 65.50 L 183.50 66.00 L 184.00 66.50 L 184.50 67.00 L 184.50 68.00 L 184.50 69.00 L 184.50 70.00 L 184.50 71.00 L 184.50 72.00 L 184.50 73.00 L 184.50 74.00 L 184.50 75.00 L 184.50 76.00 L 184.50 77.00 L 184.50 78.00 L 184.50 79.00 L 184.50 80.00 L 184.50 81.00 L 184.50 82.00 L 184.00 82.50 L 183.50 83.00 L 183.50 84.00 L 183.50 85.00 L 183.50 86.00 L 183.50 87.00 L 183.00 87.50 L 182.50 88.00 L 182.50 89.00 L 182.50 90.00 L 182.50 91.00 L 182.50 92.00 L 182.00 92.50 L 181.50 93.00 L 181.50 94.00 L 181.00 94.50 L 180.50 95.00 L 180.50 96.00 L 180.00 96.50 L 179.50 97.00 L 179.50 98.00 L 179.00 98.50 L 178.50 99.00 L 178.00 99.50 L 177.50 100.00 L 177.50 101.00 L 177.00 101.50 L 176.50 102.00 L 176.00 102.50 L 175.50 103.00 L 175.00 103.50 L 174.50 104.00 L 174.00 104.50 L 173.50 105.00 L 173.00 105.50 L 172.50 106.00 L 172.00 106.50 L 171.50 107.00 L 171.00 107.50 L 170.00 107.50 L 169.50 108.00 L 169.00 108.50 L 168.00 108.50 L 167.50 109.00 L 167.00 109.50 L 166.00 109.50 L 165.50 110.00 L 165.00 110.50 L 164.00 110.50 L 163.00 110.50 L 162.50 111.00 L 162.00 111.50 L 161.00 111.50 L 160.00 111.50 L 159.50 112.00 L 159.00 112.50 Z" fill="url(#grad)" stroke="none"/>
<path d="M 99.00 138.50 L 98.00 138.50 L 97.00 138.50 L 96.00 138.50 L 95.00 138.50 L 94.50 138.00 L 94.00 137.50 L 93.50 137.00 L 93.50 136.00 L 93.50 135.00 L 93.50 134.00 L 93.50 133.00 L 94.00 132.50 L 94.50 132.00 L 94.50 131.00 L 95.00 130.50 L 96.00 130.50 L 97.00 130.50 L 98.00 130.50 L 99.00 130.50 L 99.50 131.00 L 100.00 131.50 L 100.50 132.00 L 101.00 132.50 L 101.50 133.00 L 101.50 134.00 L 101.50 135.00 L 101.50 136.00 L 101.00 136.50 L 100.50 137.00 L 100.00 137.50 L 99.50 138.00 L 99.00 138.50 Z" fill="rgb(11,46,109)" stroke="none"/>
<path d="M 217.00 138.50 L 216.00 138.50 L 215.00 138.50 L 214.00 138.50 L 213.00 138.50 L 212.50 138.00 L 212.00 137.50 L 211.50 137.00 L 211.50 136.00 L 211.50 135.00 L 211.50 134.00 L 211.50 133.00 L 211.50 132.00 L 212.00 131.50 L 212.50 131.00 L 213.00 130.50 L 214.00 130.50 L 215.00 130.50 L 216.00 130.50 L 217.00 130.50 L 217.50 131.00 L 218.00 131.50 L 218.50 132.00 L 218.50 133.00 L 218.50 134.00 L 218.50 135.00 L 218.50 136.00 L 218.50 137.00 L 218.00 137.50 L 217.50 138.00 L 217.00 138.50 Z" fill="rgb(11,46,109)" stroke="none"/>
<path d="M 75.00 168.50 L 74.00 168.50 L 73.00 168.50 L 72.00 168.50 L 71.00 168.50 L 70.00 168.50 L 69.00 168.50 L 68.50 168.00 L 68.50 167.00 L 68.50 166.00 L 68.50 165.00 L 68.50 164.00 L 68.50 163.00 L 68.50 162.00 L 68.50 161.00 L 68.50 160.00 L 68.50 159.00 L 68.50 158.00 L 68.50 157.00 L 68.50 156.00 L 68.50 155.00 L 68.50 154.00 L 68.50 153.00 L 68.50 152.00 L 68.50 151.00 L 68.50 150.00 L 68.50 149.00 L 68.50 148.00 L 68.50 147.00 L 68.50 146.00 L 68.50 145.00 L 68.50 144.00 L 68.50 143.00 L 68.50 142.00 L 68.50 141.00 L 68.50 140.00 L 68.50 139.00 L 68.50 138.00 L 68.50 137.00 L 68.50 136.00 L 68.50 135.00 L 68.50 134.00 L 68.50 133.00 L 68.50 132.00 L 69.00 131.50 L 70.00 131.50 L 71.00 131.50 L 72.00 131.50 L 73.00 131.50 L 74.00 131.50 L 75.00 131.50 L 76.00 131.50 L 77.00 131.50 L 78.00 131.50 L 79.00 131.50 L 80.00 131.50 L 81.00 131.50 L 82.00 131.50 L 83.00 131.50 L 84.00 131.50 L 85.00 131.50 L 86.00 131.50 L 87.00 131.50 L 88.00 131.50 L 89.00 131.50 L 90.00 131.50 L 90.50 132.00 L 90.50 133.00 L 90.50 134.00 L 90.50 135.00 L 90.50 136.00 L 90.50 137.00 L 90.50 138.00 L 90.00 138.50 L 89.00 138.50 L 88.00 138.50 L 87.00 138.50 L 86.00 138.50 L 85.00 138.50 L 84.00 138.50 L 83.00 138.50 L 82.00 138.50 L 81.00 138.50 L 80.00 138.50 L 79.00 138.50 L 78.00 138.50 L 77.00 138.50 L 76.00 138.50 L 75.50 139.00 L 75.50 140.00 L 75.50 141.00 L 75.50 142.00 L 75.50 143.00 L 75.50 144.00 L 75.50 145.00 L 75.50 146.00 L 75.50 147.00 L 76.00 147.50 L 77.00 147.50 L 78.00 147.50 L 79.00 147.50 L 80.00 147.50 L 81.00 147.50 L 82.00 147.50 L 83.00 147.50 L 84.00 147.50 L 85.00 147.50 L 86.00 147.50 L 87.00 147.50 L 88.00 147.50 L 88.50 148.00 L 89.00 148.50 L 89.50 149.00 L 89.50 150.00 L 89.50 151.00 L 89.50 152.00 L 89.50 153.00 L 89.50 154.00 L 89.00 154.50 L 88.00 154.50 L 87.00 154.50 L 86.00 154.50 L 85.00 154.50 L 84.00 154.50 L 83.00 154.50 L 82.00 154.50 L 81.00 154.50 L 80.00 154.50 L 79.00 154.50 L 78.00 154.50 L 77.00 154.50 L 76.00 154.50 L 75.50 155.00 L 75.50 156.00 L 75.50 157.00 L 75.50 158.00 L 75.50 159.00 L 75.50 160.00 L 75.50 161.00 L 75.50 162.00 L 75.50 163.00 L 75.50 164.00 L 75.50 165.00 L 75.50 166.00 L 75.50 167.00 L 75.50 168.00 L 75.00 168.50 Z" fill="rgb(11,46,109)" stroke="none"/>
<path d="M 0.00 140.50 L 1.00 140.50 L 1.50 141.00 L 2.00 141.50 L 3.00 141.50 L 4.00 141.50 L 5.00 141.50 L 6.00 141.50 L 6.50 142.00 L 6.50 143.00 L 7.00 143.50 L 7.50 144.00 L 7.50 145.00 L 8.00 145.50 L 8.50 146.00 L 8.50 147.00 L 8.50 148.00 L 8.50 149.00 L 9.00 149.50 L 9.50 150.00 L 9.50 151.00 L 9.50 152.00 L 10.00 152.50 L 10.50 153.00 L 10.50 154.00 L 10.50 155.00 L 10.50 156.00 L 10.50 157.00 L 11.00 157.50 L 11.50 157.00 L 11.50 156.00 L 11.50 155.00 L 12.00 154.50 L 12.50 154.00 L 12.50 153.00 L 13.00 152.50 L 13.50 152.00 L 13.50 151.00 L 13.50 150.00 L 13.50 149.00 L 13.50 148.00 L 14.00 147.50 L 14.50 147.00 L 14.50 146.00 L 14.50 145.00 L 15.00 144.50 L 15.50 144.00 L 15.50 143.00 L 15.50 142.00 L 16.00 141.50 L 17.00 141.50 L 18.00 141.50 L 19.00 141.50 L 20.00 141.50 L 21.00 141.50 L 22.00 141.50 L 23.00 141.50 L 23.50 142.00 L 23.50 143.00 L 23.50 144.00 L 24.00 144.50 L 24.50 145.00 L 24.50 146.00 L 24.50 147.00 L 24.50 148.00 L 25.00 148.50 L 25.50 149.00 L 25.50 150.00 L 25.50 151.00 L 25.50 152.00 L 26.00 152.50 L 26.50 153.00 L 26.50 154.00 L 26.50 155.00 L 27.00 155.50 L 27.50 156.00 L 27.50 157.00 L 28.00 157.50 L 28.50 157.00 L 28.50 156.00 L 28.50 155.00 L 28.50 154.00 L 28.50 153.00 L 29.00 152.50 L 29.50 152.00 L 29.50 151.00 L 29.50 150.00 L 30.00 149.50 L 30.50 149.00 L 30.50 148.00 L 30.50 147.00 L 30.50 146.00 L 30.50 145.00 L 31.00 144.50 L 31.50 144.00 L 31.50 143.00 L 32.00 142.50 L 32.50 142.00 L 33.00 141.50 L 34.00 141.50 L 35.00 141.50 L 36.00 141.50 L 37.00 141.50 L 38.00 141.50 L 39.00 141.50 L 39.50 142.00 L 39.50 143.00 L 39.00 143.50 L 38.50 144.00 L 38.50 145.00 L 38.50 146.00 L 38.00 146.50 L 37.50 147.00 L 37.50 148.00 L 37.50 149.00 L 37.50 150.00 L 37.00 150.50 L 36.50 151.00 L 36.50 152.00 L 36.50 153.00 L 36.50 154.00 L 36.00 154.50 L 35.50 155.00 L 35.50 156.00 L 35.50 157.00 L 35.00 157.50 L 34.50 158.00 L 34.50 159.00 L 34.50 160.00 L 34.00 160.50 L 33.50 161.00 L 33.50 162.00 L 33.50 163.00 L 33.00 163.50 L 32.50 164.00 L 32.50 165.00 L 32.50 166.00 L 32.50 167.00 L 32.00 167.50 L 31.50 168.00 L 31.00 168.50 L 30.00 168.50 L 29.00 168.50 L 28.00 168.50 L 27.00 168.50 L 26.00 168.50 L 25.00 168.50 L 24.50 168.00 L 24.00 167.50 L 23.50 167.00 L 23.50 166.00 L 23.50 165.00 L 23.50 164.00 L 23.00 163.50 L 22.50 163.00 L 22.50 162.00 L 22.50 161.00 L 22.00 160.50 L 21.50 160.00 L 21.50 159.00 L 21.50 158.00 L 21.50 157.00 L 21.00 156.50 L 20.50 156.00 L 20.50 155.00 L 20.50 154.00 L 20.00 153.50 L 19.00 153.50 L 18.50 154.00 L 18.50 155.00 L 18.50 156.00 L 18.00 156.50 L 17.50 157.00 L 17.50 158.00 L 17.50 159.00 L 17.50 160.00 L 17.00 160.50 L 16.50 161.00 L 16.50 162.00 L 16.50 163.00 L 16.00 163.50 L 15.50 164.00 L 15.50 165.00 L 15.50 166.00 L 15.50 167.00 L 15.00 167.50 L 14.50 168.00 L 14.00 168.50 L 13.00 168.50 L 12.00 168.50 L 11.00 168.50 L 10.00 168.50 L 9.00 168.50 L 8.00 168.50 L 7.00 168.50 L 6.50 168.00 L 6.50 167.00 L 6.50 166.00 L 6.00 165.50 L 5.50 165.00 L 5.50 164.00 L 5.50 163.00 L 5.00 162.50 L 4.50 162.00 L 4.50 161.00 L 4.50 160.00 L 4.50 159.00 L 4.50 158.00 L 4.00 157.50 L 3.50 157.00 L 3.50 156.00 L 3.00 155.50 L 2.50 155.00 L 2.50 154.00 L 2.50 153.00 L 2.50 152.00 L 2.00 151.50 L 1.50 151.00 L 1.50 150.00 L 1.50 149.00 L 1.00 148.50 L 0.50 148.00 L 0.50 147.00 L 0.50 146.00 L 0.00 145.50 Z" fill="rgb(11,46,109)" stroke="none"/>
<path d="M 49.50 169.00 L 49.00 168.50 L 48.00 168.50 L 47.50 168.00 L 47.00 167.50 L 46.00 167.50 L 45.50 167.00 L 45.00 166.50 L 44.50 166.00 L 44.00 165.50 L 43.50 165.00 L 43.00 164.50 L 42.50 164.00 L 42.50 163.00 L 42.00 162.50 L 41.50 162.00 L 41.00 161.50 L 40.50 161.00 L 40.50 160.00 L 40.50 159.00 L 40.50 158.00 L 40.50 157.00 L 40.50 156.00 L 40.50 155.00 L 40.50 154.00 L 40.50 153.00 L 40.50 152.00 L 40.50 151.00 L 40.50 150.00 L 41.00 149.50 L 41.50 149.00 L 41.50 148.00 L 42.00 147.50 L 42.50 147.00 L 42.50 146.00 L 43.00 145.50 L 43.50 145.00 L 44.00 144.50 L 44.50 144.00 L 45.00 143.50 L 45.50 143.00 L 46.00 142.50 L 46.50 142.00 L 47.00 141.50 L 48.00 141.50 L 49.00 141.50 L 49.50 141.00 L 50.00 140.50 L 51.00 140.50 L 52.00 140.50 L 53.00 140.50 L 54.00 140.50 L 55.00 140.50 L 55.50 141.00 L 56.00 141.50 L 57.00 141.50 L 58.00 141.50 L 58.50 142.00 L 59.00 142.50 L 59.50 143.00 L 60.00 143.50 L 61.00 143.50 L 61.50 144.00 L 61.50 145.00 L 62.00 145.50 L 62.50 146.00 L 63.00 146.50 L 63.50 147.00 L 63.50 148.00 L 63.50 149.00 L 63.50 150.00 L 64.00 150.50 L 64.50 151.00 L 64.50 152.00 L 64.50 153.00 L 64.50 154.00 L 64.50 155.00 L 64.50 156.00 L 64.00 156.50 L 63.00 156.50 L 62.00 156.50 L 61.00 156.50 L 60.00 156.50 L 59.00 156.50 L 58.50 157.00 L 58.00 157.50 L 57.00 157.50 L 56.00 157.50 L 55.00 157.50 L 54.00 157.50 L 53.00 157.50 L 52.00 157.50 L 51.00 157.50 L 50.00 157.50 L 49.00 157.50 L 48.00 157.50 L 47.50 158.00 L 47.50 159.00 L 48.00 159.50 L 48.50 160.00 L 48.50 161.00 L 49.00 161.50 L 50.00 161.50 L 50.50 162.00 L 51.00 162.50 L 52.00 162.50 L 52.50 163.00 L 53.00 163.50 L 54.00 163.50 L 55.00 163.50 L 55.50 163.00 L 56.00 162.50 L 57.00 162.50 L 58.00 162.50 L 58.50 162.00 L 59.00 161.50 L 60.00 161.50 L 60.50 161.00 L 61.00 160.50 L 61.50 161.00 L 61.50 162.00 L 62.00 162.50 L 62.50 163.00 L 63.00 163.50 L 63.50 164.00 L 63.50 165.00 L 63.00 165.50 L 62.50 166.00 L 62.00 166.50 L 61.50 167.00 L 61.00 167.50 L 60.00 167.50 L 59.50 168.00 L 59.00 168.50 L 58.00 168.50 L 57.00 168.50 L 56.50 169.00 Z" fill="rgb(11,46,109)" stroke="none"/>
<path d="M 129.00 168.50 L 128.00 168.50 L 127.00 168.50 L 126.00 168.50 L 125.00 168.50 L 124.00 168.50 L 123.00 168.50 L 122.50 168.00 L 122.50 167.00 L 122.50 166.00 L 122.50 165.00 L 122.50 164.00 L 122.50 163.00 L 122.50 162.00 L 122.50 161.00 L 122.50 160.00 L 122.50 159.00 L 122.50 158.00 L 122.50 157.00 L 122.50 156.00 L 122.50 155.00 L 122.50 154.00 L 122.50 153.00 L 122.50 152.00 L 122.50 151.00 L 122.50 150.00 L 122.00 149.50 L 121.50 149.00 L 121.50 148.00 L 121.00 147.50 L 120.50 147.00 L 120.00 146.50 L 119.00 146.50 L 118.00 146.50 L 117.50 147.00 L 117.00 147.50 L 116.00 147.50 L 115.50 148.00 L 115.00 148.50 L 114.50 149.00 L 114.00 149.50 L 113.50 150.00 L 113.50 151.00 L 113.50 152.00 L 113.50 153.00 L 113.00 153.50 L 112.50 154.00 L 112.50 155.00 L 112.50 156.00 L 112.50 157.00 L 112.50 158.00 L 112.50 159.00 L 112.50 160.00 L 112.50 161.00 L 112.50 162.00 L 112.50 163.00 L 112.50 164.00 L 112.50 165.00 L 112.50 166.00 L 112.50 167.00 L 112.50 168.00 L 112.00 168.50 L 111.00 168.50 L 110.00 168.50 L 109.00 168.50 L 108.00 168.50 L 107.00 168.50 L 106.00 168.50 L 105.50 168.00 L 105.50 167.00 L 105.50 166.00 L 105.50 165.00 L 105.50 164.00 L 105.50 163.00 L 105.50 162.00 L 105.50 161.00 L 105.50 160.00 L 105.50 159.00 L 105.50 158.00 L 105.50 157.00 L 105.50 156.00 L 105.50 155.00 L 105.50 154.00 L 105.50 153.00 L 105.50 152.00 L 105.50 151.00 L 105.50 150.00 L 105.50 149.00 L 105.50 148.00 L 105.50 147.00 L 105.50 146.00 L 105.50 145.00 L 105.50 144.00 L 105.50 143.00 L 105.50 142.00 L 106.00 141.50 L 107.00 141.50 L 108.00 141.50 L 109.00 141.50 L 110.00 141.50 L 111.00 141.50 L 112.00 141.50 L 112.50 142.00 L 112.50 143.00 L 113.00 143.50 L 113.50 143.00 L 114.00 142.50 L 114.50 142.00 L 115.00 141.50 L 116.00 141.50 L 117.00 141.50 L 117.50 141.00 L 118.00 140.50 L 119.00 140.50 L 120.00 140.50 L 121.00 140.50 L 122.00 140.50 L 123.00 140.50 L 124.00 140.50 L 124.50 141.00 L 125.00 141.50 L 126.00 141.50 L 126.50 142.00 L 127.00 142.50 L 127.50 143.00 L 128.00 143.50 L 128.50 144.00 L 128.50 145.00 L 129.00 145.50 L 129.50 146.00 L 129.50 147.00 L 129.50 148.00 L 129.50 149.00 L 129.50 150.00 L 129.50 151.00 L 129.50 152.00 L 129.50 153.00 L 129.50 154.00 L 129.50 155.00 L 129.50 156.00 L 129.50 157.00 L 129.50 158.00 L 129.50 159.00 L 129.50 160.00 L 129.50 161.00 L 129.50 162.00 L 129.50 163.00 L 129.50 164.00 L 130.00 164.50 L 130.50 165.00 L 130.50 166.00 L 130.50 167.00 L 130.00 167.50 L 129.50 168.00 L 129.00 168.50 Z" fill="rgb(11,46,109)" stroke="none"/>
<path d="M 138.50 169.00 L 138.00 168.50 L 137.00 168.50 L 136.50 168.00 L 136.00 167.50 L 135.50 167.00 L 135.00 166.50 L 134.50 166.00 L 134.00 165.50 L 133.50 165.00 L 133.50 164.00 L 133.50 163.00 L 133.00 162.50 L 132.50 162.00 L 132.50 161.00 L 132.50 160.00 L 133.00 159.50 L 133.50 159.00 L 133.50 158.00 L 133.50 157.00 L 134.00 156.50 L 134.50 156.00 L 135.00 155.50 L 135.50 155.00 L 136.00 154.50 L 136.50 154.00 L 137.00 153.50 L 138.00 153.50 L 138.50 153.00 L 139.00 152.50 L 140.00 152.50 L 140.50 152.00 L 141.00 151.50 L 142.00 151.50 L 143.00 151.50 L 144.00 151.50 L 145.00 151.50 L 146.00 151.50 L 147.00 151.50 L 148.00 151.50 L 148.50 151.00 L 148.50 150.00 L 148.50 149.00 L 148.00 148.50 L 147.50 148.00 L 147.00 147.50 L 146.50 147.00 L 146.00 146.50 L 145.00 146.50 L 144.00 146.50 L 143.00 146.50 L 142.00 146.50 L 141.50 147.00 L 141.00 147.50 L 140.50 148.00 L 140.00 148.50 L 139.00 148.50 L 138.00 148.50 L 137.50 149.00 L 137.00 149.50 L 136.50 149.00 L 136.00 148.50 L 135.50 148.00 L 135.50 147.00 L 135.00 146.50 L 134.50 146.00 L 134.50 145.00 L 134.50 144.00 L 135.00 143.50 L 136.00 143.50 L 136.50 143.00 L 137.00 142.50 L 137.50 142.00 L 138.00 141.50 L 139.00 141.50 L 140.00 141.50 L 141.00 141.50 L 141.50 141.00 L 142.00 140.50 L 143.00 140.50 L 144.00 140.50 L 145.00 140.50 L 146.00 140.50 L 147.00 140.50 L 148.00 140.50 L 148.50 141.00 L 149.00 141.50 L 150.00 141.50 L 151.00 141.50 L 151.50 142.00 L 152.00 142.50 L 152.50 143.00 L 153.00 143.50 L 153.50 144.00 L 154.00 144.50 L 154.50 145.00 L 154.50 146.00 L 154.50 147.00 L 155.00 147.50 L 155.50 148.00 L 155.50 149.00 L 155.50 150.00 L 155.50 151.00 L 155.50 152.00 L 155.50 153.00 L 155.50 154.00 L 155.50 155.00 L 155.50 156.00 L 155.50 157.00 L 155.50 158.00 L 155.50 159.00 L 155.50 160.00 L 155.50 161.00 L 155.50 162.00 L 155.50 163.00 L 155.50 164.00 L 156.00 164.50 L 156.50 165.00 L 156.50 166.00 L 156.50 167.00 L 156.50 168.00 L 156.00 168.50 L 155.00 168.50 L 154.00 168.50 L 153.00 168.50 L 152.00 168.50 L 151.00 168.50 L 150.00 168.50 L 149.50 168.00 L 149.50 167.00 L 149.50 166.00 L 149.00 165.50 L 148.50 166.00 L 148.50 167.00 L 148.00 167.50 L 147.00 167.50 L 146.50 168.00 L 146.00 168.50 L 145.00 168.50 L 144.50 169.00 Z" fill="rgb(11,46,109)" stroke="none"/>
<path d="M 184.00 168.50 L 183.00 168.50 L 182.00 168.50 L 181.00 168.50 L 180.00 168.50 L 179.00 168.50 L 178.00 168.50 L 177.50 168.00 L 177.50 167.00 L 177.50 166.00 L 177.50 165.00 L 177.50 164.00 L 177.50 163.00 L 177.50 162.00 L 177.50 161.00 L 177.50 160.00 L 177.50 159.00 L 177.50 158.00 L 177.50 157.00 L 177.50 156.00 L 177.50 155.00 L 177.50 154.00 L 177.50 153.00 L 177.50 152.00 L 177.50 151.00 L 177.00 150.50 L 176.50 150.00 L 176.50 149.00 L 176.00 148.50 L 175.50 148.00 L 175.00 147.50 L 174.50 147.00 L 174.00 146.50 L 173.00 146.50 L 172.00 146.50 L 171.50 147.00 L 171.00 147.50 L 170.50 148.00 L 170.00 148.50 L 169.50 149.00 L 169.00 149.50 L 168.50 150.00 L 168.50 151.00 L 168.00 151.50 L 167.50 152.00 L 167.50 153.00 L 167.50 154.00 L 167.50 155.00 L 167.50 156.00 L 167.50 157.00 L 167.50 158.00 L 167.50 159.00 L 167.50 160.00 L 167.50 161.00 L 167.50 162.00 L 167.50 163.00 L 167.50 164.00 L 167.50 165.00 L 167.50 166.00 L 167.50 167.00 L 167.50 168.00 L 167.00 168.50 L 166.00 168.50 L 165.00 168.50 L 164.00 168.50 L 163.00 168.50 L 162.00 168.50 L 161.00 168.50 L 160.50 168.00 L 160.50 167.00 L 160.50 166.00 L 160.50 165.00 L 160.50 164.00 L 160.50 163.00 L 160.50 162.00 L 160.50 161.00 L 160.50 160.00 L 160.50 159.00 L 160.50 158.00 L 160.50 157.00 L 160.50 156.00 L 160.50 155.00 L 160.50 154.00 L 160.50 153.00 L 160.50 152.00 L 160.50 151.00 L 160.50 150.00 L 160.50 149.00 L 160.50 148.00 L 160.50 147.00 L 160.50 146.00 L 160.50 145.00 L 160.50 144.00 L 160.50 143.00 L 160.50 142.00 L 161.00 141.50 L 162.00 141.50 L 163.00 141.50 L 164.00 141.50 L 165.00 141.50 L 166.00 141.50 L 167.00 141.50 L 167.50 142.00 L 167.50 143.00 L 167.50 144.00 L 168.00 144.50 L 168.50 144.00 L 168.50 143.00 L 169.00 142.50 L 169.50 142.00 L 170.00 141.50 L 171.00 141.50 L 172.00 141.50 L 172.50 141.00 L 173.00 140.50 L 174.00 140.50 L 175.00 140.50 L 176.00 140.50 L 177.00 140.50 L 178.00 140.50 L 178.50 141.00 L 179.00 141.50 L 180.00 141.50 L 180.50 142.00 L 181.00 142.50 L 181.50 143.00 L 182.00 143.50 L 182.50 144.00 L 183.00 144.50 L 183.50 145.00 L 183.50 146.00 L 184.00 146.50 L 184.50 147.00 L 184.50 148.00 L 184.50 149.00 L 184.50 150.00 L 184.50 151.00 L 184.50 152.00 L 184.50 153.00 L 184.50 154.00 L 184.50 155.00 L 184.50 156.00 L 184.50 157.00 L 184.50 158.00 L 184.50 159.00 L 184.50 160.00 L 184.50 161.00 L 184.50 162.00 L 184.50 163.00 L 184.50 164.00 L 184.50 165.00 L 184.50 166.00 L 184.50 167.00 L 184.50 168.00 L 184.00 168.50 Z" fill="rgb(11,46,109)" stroke="none"/>
<path d="M 193.50 169.00 L 193.00 168.50 L 192.00 168.50 L 191.00 168.50 L 190.50 168.00 L 190.00 167.50 L 189.50 167.00 L 189.00 166.50 L 188.50 166.00 L 188.00 165.50 L 187.50 165.00 L 187.50 164.00 L 188.00 163.50 L 188.50 163.00 L 188.50 162.00 L 189.00 161.50 L 189.50 161.00 L 190.00 160.50 L 190.50 161.00 L 191.00 161.50 L 192.00 161.50 L 192.50 162.00 L 193.00 162.50 L 194.00 162.50 L 194.50 163.00 L 195.00 163.50 L 196.00 163.50 L 197.00 163.50 L 198.00 163.50 L 199.00 163.50 L 199.50 163.00 L 200.00 162.50 L 200.50 162.00 L 200.50 161.00 L 200.50 160.00 L 200.50 159.00 L 200.00 158.50 L 199.00 158.50 L 198.50 158.00 L 198.00 157.50 L 197.00 157.50 L 196.50 157.00 L 196.00 156.50 L 195.00 156.50 L 194.00 156.50 L 193.00 156.50 L 192.50 156.00 L 192.00 155.50 L 191.50 155.00 L 191.00 154.50 L 190.00 154.50 L 189.50 154.00 L 189.50 153.00 L 189.00 152.50 L 188.50 152.00 L 188.50 151.00 L 188.00 150.50 L 187.50 150.00 L 187.50 149.00 L 188.00 148.50 L 188.50 148.00 L 188.50 147.00 L 188.50 146.00 L 189.00 145.50 L 189.50 145.00 L 189.50 144.00 L 190.00 143.50 L 190.50 143.00 L 191.00 142.50 L 192.00 142.50 L 192.50 142.00 L 193.00 141.50 L 194.00 141.50 L 195.00 141.50 L 195.50 141.00 L 196.00 140.50 L 197.00 140.50 L 198.00 140.50 L 199.00 140.50 L 200.00 140.50 L 201.00 140.50 L 201.50 141.00 L 202.00 141.50 L 203.00 141.50 L 204.00 141.50 L 204.50 142.00 L 205.00 142.50 L 205.50 143.00 L 206.00 143.50 L 206.50 144.00 L 206.50 145.00 L 206.50 146.00 L 206.00 146.50 L 205.50 147.00 L 205.00 147.50 L 204.50 148.00 L 204.00 148.50 L 203.50 148.00 L 203.00 147.50 L 202.50 147.00 L 202.00 146.50 L 201.00 146.50 L 200.00 146.50 L 199.00 146.50 L 198.00 146.50 L 197.00 146.50 L 196.00 146.50 L 195.50 147.00 L 195.00 147.50 L 194.50 148.00 L 194.50 149.00 L 195.00 149.50 L 195.50 150.00 L 196.00 150.50 L 197.00 150.50 L 197.50 151.00 L 198.00 151.50 L 199.00 151.50 L 200.00 151.50 L 201.00 151.50 L 201.50 152.00 L 202.00 152.50 L 203.00 152.50 L 203.50 153.00 L 204.00 153.50 L 204.50 154.00 L 205.00 154.50 L 205.50 155.00 L 206.00 155.50 L 206.50 156.00 L 207.00 156.50 L 207.50 157.00 L 207.50 158.00 L 207.50 159.00 L 208.00 159.50 L 208.50 160.00 L 208.50 161.00 L 208.00 161.50 L 207.50 162.00 L 207.50 163.00 L 207.00 163.50 L 206.50 164.00 L 206.50 165.00 L 206.00 165.50 L 205.50 166.00 L 205.00 166.50 L 204.50 167.00 L 204.00 167.50 L 203.00 167.50 L 202.50 168.00 L 202.00 168.50 L 201.00 168.50 L 200.50 169.00 Z" fill="rgb(11,46,109)" stroke="none"/>
<path d="M 231.50 169.00 L 231.00 168.50 L 230.00 168.50 L 229.50 168.00 L 229.00 167.50 L 228.00 167.50 L 227.50 167.00 L 227.00 166.50 L 226.50 166.00 L 226.00 165.50 L 225.50 165.00 L 225.00 164.50 L 224.50 164.00 L 224.00 163.50 L 223.50 163.00 L 223.50 162.00 L 223.50 161.00 L 223.00 160.50 L 222.50 160.00 L 222.50 159.00 L 222.00 158.50 L 221.50 158.00 L 221.50 157.00 L 221.50 156.00 L 221.50 155.00 L 221.50 154.00 L 221.50 153.00 L 221.50 152.00 L 222.00 151.50 L 222.50 151.00 L 222.50 150.00 L 223.00 149.50 L 223.50 149.00 L 223.50 148.00 L 223.50 147.00 L 224.00 146.50 L 224.50 146.00 L 225.00 145.50 L 225.50 145.00 L 226.00 144.50 L 226.50 144.00 L 227.00 143.50 L 227.50 143.00 L 228.00 142.50 L 228.50 142.00 L 229.00 141.50 L 230.00 141.50 L 231.00 141.50 L 232.00 141.50 L 232.50 141.00 L 233.00 140.50 L 234.00 140.50 L 235.00 140.50 L 236.00 140.50 L 237.00 140.50 L 237.50 141.00 L 238.00 141.50 L 239.00 141.50 L 240.00 141.50 L 241.00 141.50 L 241.50 142.00 L 242.00 142.50 L 243.00 142.50 L 243.50 143.00 L 244.00 143.50 L 244.50 144.00 L 245.00 144.50 L 245.50 145.00 L 246.00 145.50 L 246.50 146.00 L 246.50 147.00 L 247.00 147.50 L 247.50 148.00 L 247.50 149.00 L 248.00 149.50 L 248.50 150.00 L 248.50 151.00 L 248.50 152.00 L 249.00 152.50 Z" fill="rgb(11,46,109)" stroke="none"/>
<path d="M 100.00 168.50 L 99.00 168.50 L 98.00 168.50 L 97.00 168.50 L 96.00 168.50 L 95.00 168.50 L 94.00 168.50 L 93.50 168.00 L 93.50 167.00 L 93.50 166.00 L 93.50 165.00 L 93.50 164.00 L 93.50 163.00 L 93.50 162.00 L 93.50 161.00 L 93.50 160.00 L 93.50 159.00 L 93.50 158.00 L 93.50 157.00 L 93.50 156.00 L 93.50 155.00 L 93.50 154.00 L 93.50 153.00 L 93.50 152.00 L 93.50 151.00 L 93.50 150.00 L 93.50 149.00 L 93.50 148.00 L 93.50 147.00 L 93.50 146.00 L 93.50 145.00 L 93.50 144.00 L 93.50 143.00 L 93.50 142.00 L 94.00 141.50 L 95.00 141.50 L 96.00 141.50 L 97.00 141.50 L 98.00 141.50 L 99.00 141.50 L 100.00 141.50 L 100.50 142.00 L 100.50 143.00 L 100.50 144.00 L 100.50 145.00 L 100.50 146.00 L 100.50 147.00 L 100.50 148.00 L 100.50 149.00 L 100.50 150.00 L 100.50 151.00 L 100.50 152.00 L 100.50 153.00 L 100.50 154.00 L 100.50 155.00 L 100.50 156.00 L 100.50 157.00 L 100.50 158.00 L 100.50 159.00 L 100.50 160.00 L 100.50 161.00 L 100.50 162.00 L 100.50 163.00 L 100.50 164.00 L 100.50 165.00 L 100.50 166.00 L 100.50 167.00 L 100.50 168.00 L 100.00 168.50 Z" fill="rgb(11,46,109)" stroke="none"/>
<path d="M 218.00 168.50 L 217.00 168.50 L 216.00 168.50 L 215.00 168.50 L 214.00 168.50 L 213.00 168.50 L 212.00 168.50 L 211.50 168.00 L 211.50 167.00 L 211.50 166.00 L 211.50 165.00 L 211.50 164.00 L 211.50 163.00 L 211.50 162.00 L 211.50 161.00 L 211.50 160.00 L 211.50 159.00 L 211.50 158.00 L 211.50 157.00 L 211.50 156.00 L 211.50 155.00 L 211.50 154.00 L 211.50 153.00 L 211.50 152.00 L 211.50 151.00 L 211.50 150.00 L 211.50 149.00 L 211.50 148.00 L 211.50 147.00 L 211.50 146.00 L 211.50 145.00 L 211.50 144.00 L 211.50 143.00 L 211.50 142.00 L 212.00 141.50 L 213.00 141.50 L 214.00 141.50 L 215.00 141.50 L 216.00 141.50 L 217.00 141.50 L 218.00 141.50 L 218.50 142.00 L 218.50 143.00 L 218.50 144.00 L 218.50 145.00 L 218.50 146.00 L 218.50 147.00 L 218.50 148.00 L 218.50 149.00 L 218.50 150.00 L 218.50 151.00 L 218.50 152.00 L 218.50 153.00 L 218.50 154.00 L 218.50 155.00 L 218.50 156.00 L 218.50 157.00 L 218.50 158.00 L 218.50 159.00 L 218.50 160.00 L 218.50 161.00 L 218.50 162.00 L 218.50 163.00 L 218.50 164.00 L 218.50 165.00 L 218.50 166.00 L 218.50 167.00 L 218.50 168.00 L 218.00 168.50 Z" fill="rgb(11,46,109)" stroke="none"/>
<path d="M 57.50 151.00 L 57.50 150.00 L 57.00 149.50 L 56.50 149.00 L 56.50 148.00 L 56.00 147.50 L 55.50 147.00 L 55.00 146.50 L 54.00 146.50 L 53.00 146.50 L 52.00 146.50 L 51.00 146.50 L 50.50 147.00 L 50.00 147.50 L 49.50 148.00 L 49.00 148.50 L 48.50 149.00 L 48.50 150.00 L 48.00 150.50 L 47.50 151.00 L 48.00 151.50 L 49.00 151.50 L 50.00 151.50 L 51.00 151.50 L 52.00 151.50 L 53.00 151.50 L 54.00 151.50 L 55.00 151.50 L 56.00 151.50 L 57.00 151.50 L 57.50 151.00 Z" fill="rgb(11,46,109)" stroke="none"/>
<path d="M 236.50 163.00 L 237.00 162.50 L 238.00 162.50 L 238.50 162.00 L 239.00 161.50 L 239.50 161.00 L 240.00 160.50 L 240.50 160.00 L 240.50 159.00 L 240.50 158.00 L 241.00 157.50 L 241.50 157.00 L 241.50 156.00 L 241.50 155.00 L 241.50 154.00 L 241.50 153.00 L 241.50 152.00 L 241.00 151.50 L 240.50 151.00 L 240.50 150.00 L 240.00 149.50 L 239.50 149.00 L 239.00 148.50 L 238.50 148.00 L 238.00 147.50 L 237.50 147.00 L 237.00 146.50 L 236.00 146.50 L 235.00 146.50 L 234.00 146.50 L 233.50 147.00 L 233.00 147.50 L 232.50 148.00 L 232.00 148.50 L 231.00 148.50 L 230.50 149.00 L 230.50 150.00 L 230.00 150.50 L 229.50 151.00 L 229.50 152.00 L 229.50 153.00 L 229.50 154.00 L 229.00 154.50 L 228.50 155.00 L 228.50 156.00 L 229.00 156.50 L 229.50 157.00 L 229.50 158.00 L 229.50 159.00 L 230.00 159.50 L 230.50 160.00 L 230.50 161.00 L 231.00 161.50 L 232.00 161.50 L 232.50 162.00 L 233.00 162.50 L 234.00 162.50 L 234.50 163.00 L 235.00 163.50 L 236.00 163.50 L 236.50 163.00 Z" fill="rgb(11,46,109)" stroke="none"/>
<path d="M 145.50 163.00 L 146.00 162.50 L 146.50 162.00 L 147.00 161.50 L 147.50 161.00 L 147.50 160.00 L 148.00 159.50 L 148.50 159.00 L 148.50 158.00 L 148.50 157.00 L 148.00 156.50 L 147.00 156.50 L 146.00 156.50 L 145.00 156.50 L 144.00 156.50 L 143.50 157.00 L 143.00 157.50 L 142.00 157.50 L 141.50 158.00 L 141.00 158.50 L 140.50 159.00 L 140.50 160.00 L 140.50 161.00 L 140.50 162.00 L 141.00 162.50 L 141.50 163.00 L 142.00 163.50 L 143.00 163.50 L 144.00 163.50 L 145.00 163.50 L 145.50 163.00 Z" fill="rgb(11,46,109)" stroke="none"/>
<path d="M 249.00 156.50 L 248.50 157.00 L 248.50 158.00 L 248.50 159.00 L 248.00 159.50 L 247.50 160.00 L 247.50 161.00 L 247.50 162.00 L 247.00 162.50 L 246.50 163.00 L 246.00 163.50 L 245.50 164.00 L 245.50 165.00 L 245.00 165.50 L 244.00 165.50 L 243.50 166.00 L 243.00 166.50 L 242.50 167.00 L 242.00 167.50 L 241.00 167.50 L 240.50 168.00 L 240.00 168.50 L 239.00 168.50 L 238.50 169.00 Z" fill="rgb(11,46,109)" stroke="none"/>
</svg>