<svg xmlns="http://www.w3.org/2000/svg" width="250" height="122" viewBox="0 0 250 122">
<defs>
<linearGradient id="grad" x1="0%" y1="0%" x2="100%" y2="100%">
  <stop offset="0%" stop-color="#2563EB"/>
  <stop offset="100%" stop-color="#56CCF2"/>
</linearGradient>
</defs>
<path d="M 176.50 0.00 L 177.00 0.50 L 178.00 0.50 L 179.00 0.50 L 179.50 1.00 L 180.00 1.50 L 181.00 1.50 L 181.50 2.00 L 182.00 2.50 L 182.50 3.00 L 182.50 4.00 L 183.00 4.50 L 183.50 5.00 L 183.50 6.00 L 183.50 7.00 L 183.50 8.00 L 183.50 9.00 L 183.50 10.00 L 183.50 11.00 L 183.50 12.00 L 184.00 12.50 L 184.50 13.00 L 184.50 14.00 L 184.50 15.00 L 184.50 16.00 L 184.50 17.00 L 184.50 18.00 L 184.50 19.00 L 184.50 20.00 L 184.50 21.00 L 184.50 22.00 L 184.50 23.00 L 184.50 24.00 L 184.50 25.00 L 184.50 26.00 L 184.50 27.00 L 184.50 28.00 L 184.50 29.00 L 184.00 29.50 L 183.50 30.00 L 183.50 31.00 L 183.00 31.50 L 182.00 31.50 L 181.00 31.50 L 180.00 31.50 L 179.00 31.50 L 178.00 31.50 L 177.00 31.50 L 176.00 31.50 L 175.00 31.50 L 174.00 31.50 L 173.00 31.50 L 172.00 31.50 L 171.00 31.50 L 170.00 31.50 L 169.00 31.50 L 168.00 31.50 L 167.50 31.00 L 167.50 30.00 L 167.50 29.00 L 167.50 28.00 L 167.50 27.00 L 167.50 26.00 L 167.50 25.00 L 167.50 24.00 L 167.50 23.00 L 167.50 22.00 L 167.50 21.00 L 167.50 20.00 L 167.50 19.00 L 167.50 18.00 L 167.50 17.00 L 167.00 16.50 L 166.00 16.50 L 165.00 16.50 L 164.00 16.50 L 163.00 16.50 L 162.00 16.50 L 161.00 16.50 L 160.00 16.50 L 159.00 16.50 L 158.00 16.50 L 157.00 16.50 L 156.00 16.50 L 155.00 16.50 L 154.00 16.50 L 153.00 16.50 L 152.00 16.50 L 151.00 16.50 L 150.00 16.50 L 149.00 16.50 L 148.00 16.50 L 147.00 16.50 L 146.00 16.50 L 145.00 16.50 L 144.00 16.50 L 143.00 16.50 L 142.00 16.50 L 141.00 16.50 L 140.00 16.50 L 139.00 16.50 L 138.00 16.50 L 137.00 16.50 L 136.00 16.50 L 135.00 16.50 L 134.00 16.50 L 133.00 16.50 L 132.00 16.50 L 131.00 16.50 L 130.00 16.50 L 129.00 16.50 L 128.00 16.50 L 127.00 16.50 L 126.00 16.50 L 125.00 16.50 L 124.00 16.50 L 123.00 16.50 L 122.00 16.50 L 121.00 16.50 L 120.00 16.50 L 119.00 16.50 L 118.00 16.50 L 117.00 16.50 L 116.00 16.50 L 115.00 16.50 L 114.00 16.50 L 113.00 16.50 L 112.00 16.50 L 111.00 16.50 L 110.00 16.50 L 109.00 16.50 L 108.00 16.50 L 107.00 16.50 L 106.00 16.50 L 105.00 16.50 L 104.00 16.50 L 103.00 16.50 L 102.00 16.50 L 101.00 16.50 L 100.00 16.50 L 99.00 16.50 L 98.00 16.50 L 97.00 16.50 L 96.00 16.50 L 95.00 16.50 L 94.00 16.50 L 93.00 16.50 L 92.00 16.50 L 91.00 16.50 L 90.00 16.50 L 89.00 16.50 L 88.00 16.50 L 87.00 16.50 L 86.00 16.50 L 85.00 16.50 L 84.00 16.50 L 83.00 16.50 L 82.00 16.50 L 81.00 16.50 L 80.00 16.50 L 79.00 16.50 L 78.00 16.50 L 77.00 16.50 L 76.00 16.50 L 75.00 16.50 L 74.00 16.50 L 73.00 16.50 L 72.00 16.50 L 71.00 16.50 L 70.00 16.50 L 69.00 16.50 L 68.00 16.50 L 67.00 16.50 L 66.00 16.50 L 65.00 16.50 L 64.00 16.50 L 63.00 16.50 L 62.00 16.50 L 61.00 16.50 L 60.00 16.50 L 59.00 16.50 L 58.00 16.50 L 57.00 16.50 L 56.00 16.50 L 55.50 17.00 L 55.50 18.00 L 55.50 19.00 L 55.50 20.00 L 55.50 21.00 L 55.50 22.00 L 55.50 23.00 L 55.50 24.00 L 55.50 25.00 L 55.50 26.00 L 55.50 27.00 L 55.50 28.00 L 55.50 29.00 L 55.50 30.00 L 55.50 31.00 L 55.50 32.00 L 55.50 33.00 L 55.50 34.00 L 55.50 35.00 L 55.50 36.00 L 55.50 37.00 L 55.50 38.00 L 55.50 39.00 L 55.50 40.00 L 55.50 41.00 L 55.50 42.00 L 55.50 43.00 L 55.50 44.00 L 55.50 45.00 L 55.50 46.00 L 55.50 47.00 L 55.50 48.00 L 55.50 49.00 L 55.50 50.00 L 55.50 51.00 L 55.50 52.00 L 55.50 53.00 L 55.50 54.00 L 55.50 55.00 L 55.50 56.00 L 55.50 57.00 L 55.50 58.00 L 55.50 59.00 L 55.50 60.00 L 55.50 61.00 L 55.50 62.00 L 55.50 63.00 L 55.50 64.00 L 55.50 65.00 L 55.50 66.00 L 55.50 67.00 L 55.50 68.00 L 55.50 69.00 L 55.50 70.00 L 55.50 71.00 L 55.50 72.00 L 55.50 73.00 L 55.50 74.00 L 55.50 75.00 L 55.50 76.00 L 55.50 77.00 L 55.50 78.00 L 55.50 79.00 L 55.50 80.00 L 55.50 81.00 L 55.50 82.00 L 55.50 83.00 L 55.50 84.00 L 56.00 84.50 L 56.50 85.00 L 56.50 86.00 L 56.50 87.00 L 56.50 88.00 L 57.00 88.50 L 57.50 89.00 L 57.50 90.00 L 58.00 90.50 L 58.50 91.00 L 59.00 91.50 L 59.50 92.00 L 60.00 92.50 L 60.50 93.00 L 61.00 93.50 L 61.50 94.00 L 62.00 94.50 L 63.00 94.50 L 63.50 95.00 L 64.00 95.50 L 65.00 95.50 L 66.00 95.50 L 66.50 96.00 L 67.00 96.50 L 68.00 96.50 L 69.00 96.50 L 70.00 96.50 L 71.00 96.50 L 72.00 96.50 L 72.50 96.00 L 73.00 95.50 L 74.00 95.50 L 74.50 95.00 L 75.00 94.50 L 75.50 94.00 L 75.50 93.00 L 76.00 92.50 L 76.50 92.00 L 76.50 91.00 L 76.50 90.00 L 76.50 89.00 L 77.00 88.50 L 77.50 88.00 L 77.50 87.00 L 78.00 86.50 L 78.50 86.00 L 78.50 85.00 L 78.50 84.00 L 78.50 83.00 L 79.00 82.50 L 79.50 82.00 L 79.50 81.00 L 79.50 80.00 L 80.00 79.50 L 80.50 79.00 L 80.50 78.00 L 80.50 77.00 L 80.50 76.00 L 81.00 75.50 L 81.50 75.00 L 81.50 74.00 L 81.50 73.00 L 81.50 72.00 L 82.00 71.50 L 82.50 71.00 L 82.50 70.00 L 82.50 69.00 L 83.00 68.50 L 83.50 68.00 L 83.50 67.00 L 83.50 66.00 L 83.50 65.00 L 84.00 64.50 L 84.50 64.00 L 84.50 63.00 L 85.00 62.50 L 85.50 62.00 L 85.50 61.00 L 85.50 60.00 L 85.50 59.00 L 86.00 58.50 L 86.50 58.00 L 86.50 57.00 L 86.50 56.00 L 87.00 55.50 L 87.50 55.00 L 87.50 54.00 L 87.50 53.00 L 87.50 52.00 L 88.00 51.50 L 88.50 51.00 L 88.50 50.00 L 88.50 49.00 L 88.50 48.00 L 89.00 47.50 L 89.50 47.00 L 89.50 46.00 L 89.50 45.00 L 90.00 44.50 L 90.50 44.00 L 90.50 43.00 L 91.00 42.50 L 91.50 42.00 L 91.50 41.00 L 92.00 40.50 L 92.50 40.00 L 93.00 39.50 L 94.00 39.50 L 95.00 39.50 L 96.00 39.50 L 97.00 39.50 L 98.00 39.50 L 99.00 39.50 L 100.00 39.50 L 101.00 39.50 L 102.00 39.50 L 103.00 39.50 L 104.00 39.50 L 105.00 39.50 L 106.00 39.50 L 107.00 39.50 L 108.00 39.50 L 109.00 39.50 L 110.00 39.50 L 111.00 39.50 L 112.00 39.50 L 113.00 39.50 L 114.00 39.50 L 115.00 39.50 L 115.50 40.00 L 115.50 41.00 L 116.00 41.50 L 116.50 42.00 L 117.00 42.50 L 117.50 43.00 L 117.50 44.00 L 117.50 45.00 L 118.00 45.50 L 118.50 46.00 L 118.50 47.00 L 118.50 48.00 L 118.50 49.00 L 119.00 49.50 L 119.50 50.00 L 119.50 51.00 L 119.50 52.00 L 120.00 52.50 L 120.50 53.00 L 120.50 54.00 L 120.50 55.00 L 120.50 56.00 L 121.00 56.50 L 121.50 57.00 L 121.50 58.00 L 122.00 58.50 L 122.50 59.00 L 122.50 60.00 L 122.50 61.00 L 122.50 62.00 L 122.50 63.00 L 123.00 63.50 L 123.50 64.00 L 123.50 65.00 L 123.50 66.00 L 124.00 66.50 L 124.50 67.00 L 124.50 68.00 L 124.50 69.00 L 125.00 69.50 L 125.50 70.00 L 125.50 71.00 L 125.50 72.00 L 125.50 73.00 L 126.00 73.50 L 126.50 74.00 L 126.50 75.00 L 126.50 76.00 L 127.00 76.50 L 127.50 77.00 L 127.50 78.00 L 127.50 79.00 L 127.50 80.00 L 128.00 80.50 L 128.50 81.00 L 128.50 82.00 L 129.00 82.50 L 129.50 83.00 L 129.50 84.00 L 129.50 85.00 L 129.50 86.00 L 130.00 86.50 L 130.50 87.00 L 130.50 88.00 L 130.50 89.00 L 131.00 89.50 L 131.50 89.00 L 131.50 88.00 L 131.50 87.00 L 132.00 86.50 L 132.50 86.00 L 132.50 85.00 L 132.50 84.00 L 133.00 83.50 L 133.50 83.00 L 133.50 82.00 L 133.50 81.00 L 133.50 80.00 L 134.00 79.50 L 134.50 79.00 L 134.50 78.00 L 134.50 77.00 L 135.00 76.50 L 135.50 76.00 L 135.50 75.00 L 135.50 74.00 L 135.50 73.00 L 136.00 72.50 L 136.50 72.00 L 136.50 71.00 L 136.50 70.00 L 137.00 69.50 L 137.50 69.00 L 137.50 68.00 L 137.50 67.00 L 138.00 66.50 L 138.50 66.00 L 138.50 65.00 L 138.50 64.00 L 138.50 63.00 L 139.00 62.50 L 139.50 62.00 L 139.50 61.00 L 139.50 60.00 L 140.00 59.50 L 140.50 59.00 L 140.50 58.00 L 140.50 57.00 L 140.50 56.00 L 141.00 55.50 L 141.50 55.00 L 141.50 54.00 L 141.50 53.00 L 142.00 52.50 L 142.50 52.00 L 142.50 51.00 L 142.50 50.00 L 142.50 49.00 L 143.00 48.50 L 143.50 48.00 L 143.50 47.00 L 143.50 46.00 L 143.50 45.00 L 144.00 44.50 L 144.50 44.00 L 144.50 43.00 L 145.00 42.50 L 145.50 42.00 L 146.00 41.50 L 146.50 41.00 L 147.00 40.50 L 147.50 40.00 L 148.00 39.50 L 149.00 39.50 L 150.00 39.50 L 151.00 39.50 L 152.00 39.50 L 153.00 39.50 L 154.00 39.50 L 155.00 39.50 L 156.00 39.50 L 157.00 39.50 L 158.00 39.50 L 159.00 39.50 L 160.00 39.50 L 161.00 39.50 L 162.00 39.50 L 163.00 39.50 L 164.00 39.50 L 165.00 39.50 L 166.00 39.50 L 167.00 39.50 L 168.00 39.50 L 169.00 39.50 L 170.00 39.50 L 171.00 39.50 L 172.00 39.50 L 173.00 39.50 L 174.00 39.50 L 175.00 39.50 L 176.00 39.50 L 177.00 39.50 L 178.00 39.50 L 179.00 39.50 L 180.00 39.50 L 181.00 39.50 L 182.00 39.50 L 183.00 39.50 L 184.00 39.50 L 185.00 39.50 L 186.00 39.50 L 187.00 39.50 L 188.00 39.50 L 189.00 39.50 L 190.00 39.50 L 191.00 39.50 L 192.00 39.50 L 193.00 39.50 L 194.00 39.50 L 195.00 39.50 L 196.00 39.50 L 197.00 39.50 L 198.00 39.50 L 199.00 39.50 L 199.50 40.00 L 199.50 41.00 L 199.50 42.00 L 199.00 42.50 L 198.50 43.00 L 198.50 44.00 L 198.50 45.00 L 198.00 45.50 L 197.50 46.00 L 197.50 47.00 L 197.50 48.00 L 197.00 48.50 L 196.50 49.00 L 196.50 50.00 L 196.50 51.00 L 196.50 52.00 L 196.00 52.50 L 195.50 53.00 L 195.00 53.50 L 194.50 54.00 L 194.50 55.00 L 194.00 55.50 L 193.00 55.50 L 192.00 55.50 L 191.00 55.50 L 190.00 55.50 L 189.00 55.50 L 188.00 55.50 L 187.00 55.50 L 186.00 55.50 L 185.00 55.50 L 184.00 55.50 L 183.00 55.50 L 182.00 55.50 L 181.00 55.50 L 180.00 55.50 L 179.00 55.50 L 178.00 55.50 L 177.00 55.50 L 176.00 55.50 L 175.00 55.50 L 174.00 55.50 L 173.00 55.50 L 172.00 55.50 L 171.00 55.50 L 170.00 55.50 L 169.00 55.50 L 168.00 55.50 L 167.00 55.50 L 166.00 55.50 L 165.00 55.50 L 164.00 55.50 L 163.00 55.50 L 162.00 55.50 L 161.00 55.50 L 160.00 55.50 L 159.00 55.50 L 158.50 56.00 L 158.00 56.50 L 157.50 57.00 L 157.50 58.00 L 157.00 58.50 L 156.50 59.00 L 156.50 60.00 L 156.50 61.00 L 156.50 62.00 L 156.00 62.50 L 155.50 63.00 L 155.50 64.00 L 155.50 65.00 L 155.00 65.50 L 154.50 66.00 L 154.50 67.00 L 154.50 68.00 L 154.00 68.50 L 153.50 69.00 L 153.50 70.00 L 153.50 71.00 L 153.50 72.00 L 153.00 72.50 L 152.50 73.00 L 152.50 74.00 L 152.50 75.00 L 152.00 75.50 L 151.50 76.00 L 151.50 77.00 L 151.50 78.00 L 151.50 79.00 L 151.00 79.50 L 150.50 80.00 L 150.50 81.00 L 150.00 81.50 L 149.50 82.00 L 149.50 83.00 L 149.50 84.00 L 149.50 85.00 L 149.50 86.00 L 149.00 86.50 L 148.50 87.00 L 148.50 88.00 L 148.50 89.00 L 148.00 89.50 L 147.50 90.00 L 147.50 91.00 L 147.50 92.00 L 147.00 92.50 L 146.50 93.00 L 146.50 94.00 L 146.50 95.00 L 146.50 96.00 L 146.00 96.50 L 145.50 97.00 L 145.50 98.00 L 145.50 99.00 L 145.00 99.50 L 144.50 100.00 L 144.50 101.00 L 144.50 102.00 L 144.50 103.00 L 144.00 103.50 L 143.50 104.00 L 143.50 105.00 L 143.50 106.00 L 143.00 106.50 L 142.50 107.00 L 142.50 108.00 L 142.00 108.50 L 141.50 109.00 L 141.50 110.00 L 141.00 110.50 L 140.00 110.50 L 139.50 111.00 L 139.00 111.50 L 138.00 111.50 L 137.00 111.50 L 136.00 111.50 L 135.50 112.00 L 135.00 112.50 L 134.00 112.50 L 133.00 112.50 L 132.00 112.50 L 131.00 112.50 L 130.00 112.50 L 129.00 112.50 L 128.00 112.50 L 127.00 112.50 L 126.00 112.50 L 125.00 112.50 L 124.50 112.00 L 124.00 111.50 L 123.00 111.50 L 122.50 111.00 L 122.00 110.50 L 121.50 110.00 L 121.00 109.50 L 120.50 109.00 L 120.00 108.50 L 119.50 108.00 L 119.50 107.00 L 119.00 106.50 L 118.50 106.00 L 118.50 105.00 L 118.50 104.00 L 118.50 103.00 L 118.00 102.50 L 117.50 102.00 L 117.50 101.00 L 117.50 100.00 L 117.00 99.50 L 116.50 99.00 L 116.50 98.00 L 116.50 97.00 L 116.50 96.00 L 116.00 95.50 L 115.50 95.00 L 115.50 94.00 L 115.50 93.00 L 115.00 92.50 L 114.50 92.00 L 114.50 91.00 L 114.50 90.00 L 114.00 89.50 L 113.50 89.00 L 113.50 88.00 L 113.50 87.00 L 113.50 86.00 L 113.00 85.50 L 112.50 85.00 L 112.50 84.00 L 112.50 83.00 L 112.00 82.50 L 111.50 82.00 L 111.50 81.00 L 111.50 80.00 L 111.50 79.00 L 111.00 78.50 L 110.50 78.00 L 110.50 77.00 L 110.00 76.50 L 109.50 76.00 L 109.50 75.00 L 109.50 74.00 L 109.50 73.00 L 109.00 72.50 L 108.50 72.00 L 108.50 71.00 L 108.50 70.00 L 108.00 69.50 L 107.50 69.00 L 107.50 68.00 L 107.50 67.00 L 107.00 66.50 L 106.50 66.00 L 106.50 65.00 L 106.50 64.00 L 106.00 63.50 L 105.50 63.00 L 105.50 62.00 L 105.50 61.00 L 105.50 60.00 L 105.00 59.50 L 104.50 59.00 L 104.50 58.00 L 104.50 57.00 L 104.00 56.50 L 103.50 57.00 L 103.50 58.00 L 103.50 59.00 L 103.00 59.50 L 102.50 60.00 L 102.50 61.00 L 102.50 62.00 L 102.00 62.50 L 101.50 63.00 L 101.50 64.00 L 101.50 65.00 L 101.50 66.00 L 101.00 66.50 L 100.50 67.00 L 100.50 68.00 L 100.00 68.50 L 99.50 69.00 L 99.50 70.00 L 99.50 71.00 L 99.50 72.00 L 99.00 72.50 L 98.50 73.00 L 98.50 74.00 L 98.50 75.00 L 98.50 76.00 L 98.00 76.50 L 97.50 77.00 L 97.50 78.00 L 97.50 79.00 L 97.00 79.50 L 96.50 80.00 L 96.50 81.00 L 96.50 82.00 L 96.50 83.00 L 96.00 83.50 L 95.50 84.00 L 95.50 85.00 L 95.00 85.50 L 94.50 86.00 L 94.50 87.00 L 94.50 88.00 L 94.50 89.00 L 94.50 90.00 L 94.00 90.50 L 93.50 91.00 L 93.50 92.00 L 93.50 93.00 L 93.00 93.50 L 92.50 94.00 L 92.50 95.00 L 92.50 96.00 L 92.00 96.50 L 91.50 97.00 L 91.50 98.00 L 91.50 99.00 L 91.50 100.00 L 91.00 100.50 L 90.50 101.00 L 90.50 102.00 L 90.50 103.00 L 90.00 103.50 L 89.50 104.00 L 89.50 105.00 L 89.50 106.00 L 89.50 107.00 L 89.00 107.50 L 88.50 108.00 L 88.50 109.00 L 88.00 109.50 L 87.50 110.00 L 87.00 110.50 L 86.00 110.50 L 85.50 111.00 L 85.00 111.50 L 84.00 111.50 L 83.50 112.00 L 83.00 112.50 L 82.00 112.50 L 81.00 112.50 L 80.00 112.50 L 79.00 112.50 L 78.00 112.50 L 77.00 112.50 L 76.00 112.50 L 75.00 112.50 L 74.00 112.50 L 73.00 112.50 L 72.00 112.50 L 71.00 112.50 L 70.00 112.50 L 69.00 112.50 L 68.00 112.50 L 67.00 112.50 L 66.00 112.50 L 65.00 112.50 L 64.00 112.50 L 63.50 112.00 L 63.00 111.50 L 62.00 111.50 L 61.00 111.50 L 60.50 111.00 L 60.00 110.50 L 59.00 110.50 L 58.00 110.50 L 57.50 110.00 L 57.00 109.50 L 56.00 109.50 L 55.50 109.00 L 55.00 108.50 L 54.00 108.50 L 53.50 108.00 L 53.00 107.50 L 52.00 107.50 L 51.50 107.00 L 51.00 106.50 L 50.50 106.00 L 50.00 105.50 L 49.50 105.00 L 49.00 104.50 L 48.50 104.00 L 48.00 103.50 L 47.50 103.00 L 47.00 102.50 L 46.50 102.00 L 46.00 101.50 L 45.50 101.00 L 45.00 100.50 L 44.50 100.00 L 44.50 99.00 L 44.00 98.50 L 43.50 98.00 L 43.50 97.00 L 43.00 96.50 L 42.50 96.00 L 42.50 95.00 L 42.00 94.50 L 41.50 94.00 L 41.50 93.00 L 41.00 92.50 L 40.50 92.00 L 40.50 91.00 L 40.50 90.00 L 40.50 89.00 L 40.50 88.00 L 40.00 87.50 L 39.50 87.00 L 39.50 86.00 L 39.50 85.00 L 39.50 84.00 L 39.50 83.00 L 39.50 82.00 L 39.50 81.00 L 39.50 80.00 L 39.50 79.00 L 39.50 78.00 L 39.50 77.00 L 39.50 76.00 L 39.50 75.00 L 39.50 74.00 L 39.50 73.00 L 39.50 72.00 L 39.50 71.00 L 39.50 70.00 L 39.50 69.00 L 39.50 68.00 L 39.50 67.00 L 39.50 66.00 L 39.50 65.00 L 39.50 64.00 L 39.50 63.00 L 39.50 62.00 L 39.50 61.00 L 39.50 60.00 L 39.50 59.00 L 39.50 58.00 L 39.50 57.00 L 39.50 56.00 L 39.50 55.00 L 39.50 54.00 L 39.50 53.00 L 39.50 52.00 L 39.50 51.00 L 39.50 50.00 L 39.50 49.00 L 39.50 48.00 L 39.50 47.00 L 39.50 46.00 L 39.50 45.00 L 39.50 44.00 L 39.50 43.00 L 39.50 42.00 L 39.50 41.00 L 39.50 40.00 L 39.50 39.00 L 39.50 38.00 L 39.50 37.00 L 39.50 36.00 L 39.50 35.00 L 39.50 34.00 L 39.50 33.00 L 39.50 32.00 L 39.50 31.00 L 39.50 30.00 L 39.50 29.00 L 39.50 28.00 L 39.50 27.00 L 39.50 26.00 L 39.50 25.00 L 39.50 24.00 L 39.50 23.00 L 39.50 22.00 L 39.50 21.00 L 39.50 20.00 L 39.50 19.00 L 39.50 18.00 L 39.50 17.00 L 39.50 16.00 L 39.50 15.00 L 39.50 14.00 L 39.50 13.00 L 39.50 12.00 L 39.50 11.00 L 39.50 10.00 L 39.50 9.00 L 39.50 8.00 L 39.50 7.00 L 39.50 6.00 L 40.00 5.50 L 40.50 5.00 L 40.50 4.00 L 41.00 3.50 L 41.50 3.00 L 42.00 2.50 L 42.50 2.00 L 43.00 1.50 L 43.50 1.00 L 44.00 0.50 L 45.00 0.50 L 45.50 0.00 Z" fill="url(#grad)" stroke="none"/>
<path d="M 159.00 112.50 L 158.00 112.50 L 157.00 112.50 L 156.00 112.50 L 155.00 112.50 L 154.00 112.50 L 153.00 112.50 L 152.00 112.50 L 151.50 112.00 L 151.50 111.00 L 151.50 110.00 L 151.50 109.00 L 152.00 108.50 L 152.50 108.00 L 152.50 107.00 L 152.50 106.00 L 152.50 105.00 L 152.50 104.00 L 152.50 103.00 L 153.00 102.50 L 153.50 102.00 L 153.50 101.00 L 153.50 100.00 L 154.00 99.50 L 154.50 99.00 L 155.00 98.50 L 155.50 98.00 L 156.00 97.50 L 157.00 97.50 L 157.50 97.00 L 158.00 96.50 L 159.00 96.50 L 159.50 96.00 L 160.00 95.50 L 160.50 95.00 L 161.00 94.50 L 162.00 94.50 L 162.50 94.00 L 163.00 93.50 L 163.50 93.00 L 164.00 92.50 L 164.50 92.00 L 164.50 91.00 L 165.00 90.50 L 165.50 90.00 L 166.00 89.50 L 166.50 89.00 L 166.50 88.00 L 166.50 87.00 L 167.00 86.50 L 167.50 86.00 L 167.50 85.00 L 167.50 84.00 L 167.50 83.00 L 167.50 82.00 L 167.50 81.00 L 167.50 80.00 L 167.50 79.00 L 167.50 78.00 L 167.50 77.00 L 167.50 76.00 L 167.50 75.00 L 167.50 74.00 L 167.50 73.00 L 167.50 72.00 L 167.50 71.00 L 167.50 70.00 L 167.50 69.00 L 167.50 68.00 L 167.50 67.00 L 167.50 66.00 L 168.00 65.50 L 169.00 65.50 L 170.00 65.50 L 171.00 65.50 L 172.00 65.50 L 173.00 65.50 L 174.00 65.50 L 175.00 65.50 L 176.00 65.50 L 177.00 65.50 L 178.00 65.50 L 179.00 65.50 L 180.00 65.50 L 181.00 65.50 L 182.00 65.50 L 183.00 65.50 L 183.50 66.00 L 184.00 66.50 L 184.50 67.00 L 184.50 68.00 L 184.50 69.00 L 184.50 70.00 L 184.50 71.00 L 184.50 72.00 L 184.50 73.00 L 184.50 74.00 L 184.50 75.00 L 184.50 76.00 L 184.50 77.00 L 184.50 78.00 L 184.50 79.00 L 184.50 80.00 L 184.50 81.00 L 184.50 82.00 L 184.00 82.50 L 183.50 83.00 L 183.50 84.00 L 183.50 85.00 L 183.50 86.00 L 183.50 87.00 L 183.00 87.50 L 182.50 88.00 L 182.50 89.00 L 182.50 90.00 L 182.50 91.00 L 182.50 92.00 L 182.00 92.50 L 181.50 93.00 L 181.50 94.00 L 181.00 94.50 L 180.50 95.00 L 180.50 96.00 L 180.00 96.50 L 179.50 97.00 L 179.50 98.00 L 179.00 98.50 L 178.50 99.00 L 178.00 99.50 L 177.50 100.00 L 177.50 101.00 L 177.00 101.50 L 176.50 102.00 L 176.00 102.50 L 175.50 103.00 L 175.00 103.50 L 174.50 104.00 L 174.00 104.50 L 173.50 105.00 L 173.00 105.50 L 172.50 106.00 L 172.00 106.50 L 171.50 107.00 L 171.00 107.50 L 170.00 107.50 L 169.50 108.00 L 169.00 108.50 L 168.00 108.50 L 167.50 109.00 L 167.00 109.50 L 166.00 109.50 L 165.50 110.00 L 165.00 110.50 L 164.00 110.50 L 163.00 110.50 L 162.50 111.00 L 162.00 111.50 L 161.00 111.50 L 160.00 111.50 L 159.50 112.00 L 159.00 112.50 Z" fill="url(#grad)" stroke="none"/>
</svg>